# xmcd
#
# Track frame offsets: 
#        150
#        9013
#        22423
#        40638
#        51373
#        64733
#        76228
#        86508
#        96303
#        107810
#        118495
#        129693
#        142710
#        153738
#        163803
#
# Disc length: 2314 seconds
#
# Revision: 0
# Processed by: cddbd v1.5.1PL0 Copyright (c) Steve Scherf et al.
# Submitted via: ExactAudioCopy v0.95a5
#
DISCID=c809080f
DTITLE=John Lee Hooker - Hobo Blues
DYEAR=1900
DGENRE=Blues
TTITLE0=Hobo Blues
TTITLE1=I Want To Hug You
TTITLE2=House Rent Boogie
TTITLE3=Want Ad Blues
TTITLE4=I'm So Excited
TTITLE5=Hard Hearted Woman
TTITLE6=I Wanna Walk
TTITLE7=Onions
TTITLE8=What Do You Say?
TTITLE9=Keep Your Hands To Yourself
TTITLE10=Send Me Your Pillow
TTITLE11=She Shot Me Down
TTITLE12=I Want To Shout
TTITLE13=I'm Leaving Baby
TTITLE14=Dusty Road
EXTD=
EXTT0=
EXTT1=
EXTT2=
EXTT3=
EXTT4=
EXTT5=
EXTT6=
EXTT7=
EXTT8=
EXTT9=
EXTT10=
EXTT11=
EXTT12=
EXTT13=
EXTT14=
PLAYORDER=
